<?xml version="1.0" encoding="UTF-8"?>
<svg width="241px" height="43px" viewBox="0 0 241 43" version="1.1" xmlns="http://www.w3.org/2000/svg" xmlns:xlink="http://www.w3.org/1999/xlink">
    <!-- Generator: Sketch 61 (89581) - https://sketch.com -->
    <title>Group Copy 3</title>
    <desc>Created with Sketch.</desc>
    <g id="The-Social-Edition" stroke="none" stroke-width="1" fill="none" fill-rule="evenodd">
        <g id="Desktop-HD" transform="translate(-130.000000, -25.000000)">
            <g id="Group-Copy-3" transform="translate(132.000000, 24.000000)">
                <path d="M128.250789,31 L128.250789,27.6347202 L120.42184,27.6347202 L120.42184,24.1058505 L126.965439,24.1058505 L126.965439,20.9976407 L120.42184,20.9976407 L120.42184,17.772581 L128.040459,17.772581 L128.040459,14.4073012 L116.58916,14.4073012 L116.58916,31 L128.250789,31 Z M139.580838,31 C141.247898,31 142.700733,30.65724 143.939343,29.9717201 C145.177953,29.2862001 146.140018,28.3202402 146.825538,27.0738403 C147.511058,25.8274404 147.853818,24.3629205 147.853818,22.6802806 C147.853818,21.1534407 147.542218,19.7629258 146.919018,18.5087359 C146.295818,17.254546 145.372703,16.2574261 144.149673,15.5173761 C142.926643,14.7773262 141.403698,14.4073012 139.580838,14.4073012 L139.580838,14.4073012 L133.387789,14.4073012 L133.387789,31 L139.580838,31 Z M139.580838,27.6347202 L137.220469,27.6347202 L137.220469,17.772581 L139.580838,17.772581 C140.500058,17.772581 141.286848,17.9790159 141.941208,18.3918859 C142.595568,18.8047559 143.094128,19.3812158 143.436888,20.1212658 C143.779648,20.8613157 143.951028,21.7143207 143.951028,22.6802806 C143.951028,23.6150805 143.779648,24.4602955 143.436888,25.2159254 C143.094128,25.9715554 142.599463,26.5635953 141.952893,26.9920453 C141.306323,27.4204953 140.515638,27.6347202 139.580838,27.6347202 L139.580838,27.6347202 Z M156.753387,31 L156.753387,14.4073012 L152.920708,14.4073012 L152.920708,31 L156.753387,31 Z M170.326957,31 L170.326957,17.772581 L175.374876,17.772581 L175.374876,14.4073012 L161.422987,14.4073012 L161.422987,17.772581 L166.494277,17.772581 L166.494277,31 L170.326957,31 Z M183.877156,31 L183.877156,14.4073012 L180.044476,14.4073012 L180.044476,31 L183.877156,31 Z M197.123545,31.14022 C198.323205,31.14022 199.42549,30.910415 200.4304,30.450805 C201.43531,29.9911951 202.311685,29.3679951 203.059525,28.5812052 C203.807365,27.7944152 204.383825,26.9024603 204.788905,25.9053404 C205.193985,24.9082204 205.396524,23.8565705 205.396524,22.7503906 C205.396524,21.7065307 205.201775,20.6821457 204.812275,19.6772358 C204.422775,18.6723259 203.86579,17.764791 203.14132,16.954631 C202.41685,16.1444711 201.55216,15.5017961 200.54725,15.0266062 C199.54234,14.5514162 198.424475,14.3138212 197.193655,14.3138212 C195.993995,14.3138212 194.887815,14.5397312 193.875115,14.9915512 C192.862415,15.4433711 191.98604,16.0626761 191.245991,16.849466 C190.505941,17.636256 189.929481,18.5282109 189.516611,19.5253308 C189.103741,20.5224508 188.897306,21.5741007 188.897306,22.6802806 C188.897306,23.7553005 189.092056,24.7952654 189.481556,25.8001754 C189.871056,26.8050853 190.428041,27.7087252 191.152511,28.5110952 C191.87698,29.3134651 192.74167,29.9522451 193.74658,30.427435 C194.75149,30.902625 195.877145,31.14022 197.123545,31.14022 Z M197.146915,27.7282002 C196.445815,27.7282002 195.822615,27.5879802 195.277315,27.3075403 C194.732015,27.0271003 194.2763,26.6531803 193.91017,26.1857803 C193.54404,25.7183804 193.267495,25.1847654 193.080535,24.5849355 C192.893575,23.9851055 192.800095,23.3658006 192.800095,22.7270206 C192.800095,22.1038206 192.88968,21.4923057 193.06885,20.8924757 C193.24802,20.2926458 193.52067,19.7551358 193.8868,19.2799458 C194.25293,18.8047559 194.70475,18.4269409 195.24226,18.1465009 C195.77977,17.8660609 196.414655,17.725841 197.146915,17.725841 C197.832435,17.725841 198.447845,17.8582709 198.993145,18.1231309 C199.538445,18.3879909 199.998055,18.7580159 200.371975,19.2332058 C200.745895,19.7083958 201.026335,20.2420108 201.213295,20.8340507 C201.400255,21.4260907 201.493735,22.0415006 201.493735,22.6802806 C201.493735,23.3034806 201.40415,23.9149955 201.22498,24.5148255 C201.04581,25.1146554 200.777055,25.6560604 200.418715,26.1390404 C200.060375,26.6220203 199.608555,27.0076253 199.063255,27.2958553 C198.517955,27.5840852 197.879175,27.7282002 197.146915,27.7282002 Z M214.249354,31 L214.249354,21.5117807 L221.844604,31 L224.976183,31 L224.976183,14.4073012 L221.143504,14.4073012 L221.143504,24.1759605 L213.454774,14.4073012 L210.416674,14.4073012 L210.416674,31 L214.249354,31 Z" id="EDITION" fill="#37D1D1" fill-rule="nonzero"></path>
                <path d="M21.3849195,31.14022 C22.2729794,31.14022 23.0792443,31.04674 23.8037143,30.85978 C24.5281842,30.67282 25.1552792,30.40017 25.6849992,30.0418301 C26.2147191,29.6834901 26.6197991,29.2277751 26.9002391,28.6746852 C27.180679,28.1215952 27.320899,27.4789203 27.320899,26.7466603 C27.320899,25.7651204 27.0833041,24.9861204 26.6081141,24.4096605 C26.1329241,23.8332005 25.4590892,23.3774855 24.5866092,23.0425156 C23.7141293,22.7075456 22.6780594,22.4154206 21.4783995,22.1661406 C20.3410595,21.9324407 19.4140496,21.6909507 18.6973697,21.4416707 C17.9806897,21.1923907 17.4548648,20.8613157 17.1198948,20.4484458 C16.7849248,20.0355758 16.6174398,19.4785908 16.6174398,18.7774909 C16.6174398,17.733631 16.9874648,16.903996 17.7275147,16.2885861 C18.4675647,15.6731761 19.6477496,15.3654711 21.2680695,15.3654711 C21.7666294,15.3654711 22.2340294,15.4044211 22.6702694,15.4823211 C23.1065093,15.5602211 23.5115893,15.6731761 23.8855093,15.8211861 C24.2594293,15.9691961 24.6099792,16.1561561 24.9371592,16.3820661 C25.2643392,16.607976 25.5603592,16.868941 25.8252191,17.164961 L25.8252191,17.164961 L26.4328391,16.2301611 C25.9810191,15.7939211 25.4941442,15.4316861 24.9722142,15.1434561 C24.4502842,14.8552262 23.8816143,14.6410012 23.2662043,14.5007812 C22.6507944,14.3605612 21.9847494,14.2904512 21.2680695,14.2904512 C20.1151496,14.2904512 19.0946596,14.4696212 18.2065997,14.8279612 C17.3185398,15.1863011 16.6291248,15.7121261 16.1383548,16.4054361 C15.6475849,17.098746 15.4021999,17.9439609 15.4021999,18.9410809 C15.4021999,19.8447208 15.6086349,20.5614008 16.0215049,21.0911207 C16.4343748,21.6208407 17.0497848,22.0415006 17.8677347,22.3531006 C18.6856847,22.6647006 19.6789096,22.9451406 20.8474095,23.1944206 C22.0159094,23.4437005 22.9896594,23.7124555 23.7686593,24.0006855 C24.5476592,24.2889155 25.1241192,24.6589405 25.4980392,25.1107604 C25.8719591,25.5625804 26.0589191,26.1546203 26.0589191,26.8868803 C26.0589191,27.9463202 25.6499442,28.7447952 24.8319942,29.2823051 C24.0140443,29.8198151 22.8805994,30.0885701 21.4316595,30.0885701 C20.8084595,30.0885701 20.2086296,30.0301451 19.6321696,29.9132951 C19.0557096,29.7964451 18.5143047,29.6367501 18.0079547,29.4342101 C17.5016047,29.2316701 17.0342048,28.9862851 16.6057548,28.6980552 C16.1773048,28.4098252 15.7916999,28.0787502 15.4489399,27.7048302 L15.4489399,27.7048302 L14.8179499,28.6630002 C15.4099899,29.2238801 16.0487699,29.6834901 16.7342898,30.0418301 C17.4198098,30.40017 18.1520697,30.67282 18.9310696,30.85978 C19.7100696,31.04674 20.5280195,31.14022 21.3849195,31.14022 Z M39.7132681,31.11685 C40.819448,31.11685 41.8438329,30.89094 42.7864229,30.43912 C43.7290128,29.9873001 44.5547527,29.3679951 45.2636427,28.5812052 C45.9725326,27.7944152 46.5217276,26.8985653 46.9112276,25.8936554 C47.3007276,24.8887454 47.4954775,23.8254105 47.4954775,22.7036506 C47.4954775,21.6753707 47.3085176,20.6626707 46.9345976,19.6655508 C46.5606776,18.6684309 46.0309576,17.764791 45.3454377,16.954631 C44.6599177,16.1444711 43.8458628,15.4979011 42.9032729,15.0149212 C41.9606829,14.5319412 40.905138,14.2904512 39.7366381,14.2904512 C38.6304582,14.2904512 37.6060733,14.5202562 36.6634833,14.9798662 C35.7208934,15.4394761 34.8951534,16.0626761 34.1862635,16.849466 C33.4773735,17.636256 32.9281786,18.5321059 32.5386786,19.5370158 C32.1491786,20.5419258 31.9544287,21.5974707 31.9544287,22.7036506 C31.9544287,23.7630905 32.1413886,24.7952654 32.5153086,25.8001754 C32.8892286,26.8050853 33.4189486,27.7048302 34.1044685,28.4994102 C34.7899885,29.2939901 35.6079384,29.9288751 36.5583183,30.404065 C37.5086983,30.879255 38.5603482,31.11685 39.7132681,31.11685 Z M39.7366381,30.0184601 C38.7706782,30.0184601 37.8865132,29.8159201 37.0841433,29.4108401 C36.2817733,29.0057601 35.5884634,28.4604602 35.0042134,27.7749402 C34.4199635,27.0894203 33.9642485,26.3104203 33.6370685,25.4379404 C33.3098886,24.5654605 33.1462986,23.6540305 33.1462986,22.7036506 C33.1462986,21.8000107 33.3059936,20.9158457 33.6253835,20.0511558 C33.9447735,19.1864659 34.3888035,18.4035709 34.9574734,17.702471 C35.5261434,17.001371 36.2155584,16.4404911 37.0257183,16.0198311 C37.8358782,15.5991711 38.7395182,15.3888411 39.7366381,15.3888411 C40.671438,15.3888411 41.540023,15.5913811 42.3423929,15.9964611 C43.1447629,16.4015411 43.8419678,16.946841 44.4340078,17.632361 C45.0260477,18.3178809 45.4817627,19.0968809 45.8011527,19.9693608 C46.1205426,20.8418407 46.2802376,21.7532707 46.2802376,22.7036506 C46.2802376,23.6072905 46.1283326,24.4914555 45.8245227,25.3561454 C45.5207127,26.2208353 45.0805777,27.0037303 44.5041178,27.7048302 C43.9276578,28.4059302 43.2343478,28.9668101 42.4241879,29.3874701 C41.614028,29.8081301 40.718178,30.0184601 39.7366381,30.0184601 Z M60.0748066,31.14022 C60.9317065,31.14022 61.7963965,30.99221 62.6688764,30.69619 C63.5413563,30.40017 64.3359363,29.9639301 65.0526162,29.3874701 C65.7692962,28.8110102 66.3068061,28.1099102 66.6651461,27.2841703 L66.6651461,27.2841703 L65.6368662,26.7934003 C65.2629462,27.5568202 64.7721762,28.1761252 64.1645563,28.6513152 C63.5569363,29.1265051 62.9064714,29.4770551 62.2131614,29.7029651 C61.5198515,29.9288751 60.8382265,30.0418301 60.1682866,30.0418301 C59.2334866,30.0418301 58.3649017,29.8392901 57.5625318,29.4342101 C56.7601618,29.0291301 56.0590619,28.4838302 55.4592319,27.7983102 C54.859402,27.1127903 54.388107,26.3298953 54.045347,25.4496254 C53.702587,24.5693555 53.5312071,23.6384505 53.5312071,22.6569106 C53.5312071,21.7844307 53.675322,20.9197407 53.963552,20.0628408 C54.251782,19.2059409 54.676337,18.4269409 55.2372169,17.725841 C55.7980969,17.024741 56.4875118,16.463861 57.3054618,16.0432011 C58.1234117,15.6225411 59.0543167,15.4122111 60.0981766,15.4122111 C60.7525365,15.4122111 61.4068965,15.5095861 62.0612564,15.7043361 C62.7156164,15.8990861 63.3271313,16.2223711 63.8958013,16.674191 C64.4644713,17.126011 64.9435562,17.733631 65.3330562,18.4970509 L65.3330562,18.4970509 L66.3145961,17.9361709 C65.8004562,16.876731 65.0214562,16.0081461 63.9775963,15.3304161 C62.9337364,14.6526862 61.6717565,14.3138212 60.1916566,14.3138212 C58.9452567,14.3138212 57.8351817,14.5553112 56.8614318,15.0382912 C55.8876819,15.5212711 55.0658369,16.1639461 54.395897,16.966316 C53.725957,17.768686 53.2157121,18.6567459 52.8651621,19.6304958 C52.5146121,20.6042458 52.3393371,21.5896807 52.3393371,22.5868006 C52.3393371,23.6306605 52.5262971,24.6628355 52.9002171,25.6833254 C53.2741371,26.7038153 53.807752,27.6230352 54.501062,28.4409852 C55.1943719,29.2589351 56.0162169,29.9132951 56.9665968,30.404065 C57.9169767,30.894835 58.9530467,31.14022 60.0748066,31.14022 Z M73.5889356,31 L73.5889356,14.4073012 L72.3970656,14.4073012 L72.3970656,31 L73.5889356,31 Z M80.162175,31 L82.4758049,25.5314204 L90.3982343,25.5314204 L92.7118641,31 L93.973844,31 L86.9628446,14.4073012 L85.9345646,14.4073012 L78.8768251,31 L80.162175,31 Z M90.0710543,24.5498805 L82.7562449,24.5498805 L86.4487046,15.8562411 L90.0710543,24.5498805 Z M110.385853,31 L110.385853,29.9249801 L100.476974,29.9249801 L100.476974,14.4073012 L99.2851036,14.4073012 L99.2851036,31 L110.385853,31 Z" id="SOCIAL" fill="#FFFFFF" fill-rule="nonzero"></path>
                <polyline id="Path-3" stroke="#FFFFFF" stroke-width="2.31999993" points="9.18008095 3 -6.89649665e-14 3 0 42 150.589381 42 237 42 236.161062 5.03731343 48.479646 5.03731343"></polyline>
                <path d="M17.4,9 L17.4,2.52 L19.93,2.52 L19.93,1.9 L14.17,1.9 L14.17,2.52 L16.7,2.52 L16.7,9 L17.4,9 Z M24.2717403,9 L24.2717403,5.68 L28.4817403,5.68 L28.4817403,9 L29.1717403,9 L29.1717403,1.9 L28.4817403,1.9 L28.4817403,5.06 L24.2717403,5.06 L24.2717403,1.9 L23.5717403,1.9 L23.5717403,9 L24.2717403,9 Z M38.3034807,9 L38.3034807,8.38 L34.2334807,8.38 L34.2334807,5.67 L37.7034807,5.67 L37.7034807,5.08 L34.2334807,5.08 L34.2334807,2.52 L38.2134807,2.52 L38.2134807,1.9 L33.5334807,1.9 L33.5334807,9 L38.3034807,9 Z" id="THE" fill="#FFFFFF" fill-rule="nonzero"></path>
            </g>
        </g>
    </g>
</svg>