<svg aria-hidden="true" style="position: absolute; width: 0; height: 0; overflow: hidden;" version="1.1" xmlns="http://www.w3.org/2000/svg" xmlns:xlink="http://www.w3.org/1999/xlink">
<defs>
<symbol id="icon-close" viewBox="0 0 20 20">
<path d="M10 8.586l-7.071-7.071-1.414 1.414 7.071 7.071-7.071 7.071 1.414 1.414 7.071-7.071 7.071 7.071 1.414-1.414-7.071-7.071 7.071-7.071-1.414-1.414-7.071 7.071z"></path>
</symbol>
<symbol id="icon-menu" viewBox="0 0 20 20">
<path d="M0 3h20v2h-20v-2zM0 9h20v2h-20v-2zM0 15h20v2h-20v-2z"></path>
</symbol>
<symbol id="icon-chevrons-down" viewBox="0 0 24 24">
<path d="M6.293 13.707l5 5c0.391 0.391 1.024 0.391 1.414 0l5-5c0.391-0.391 0.391-1.024 0-1.414s-1.024-0.391-1.414 0l-4.293 4.293-4.293-4.293c-0.391-0.391-1.024-0.391-1.414 0s-0.391 1.024 0 1.414zM6.293 6.707l5 5c0.391 0.391 1.024 0.391 1.414 0l5-5c0.391-0.391 0.391-1.024 0-1.414s-1.024-0.391-1.414 0l-4.293 4.293-4.293-4.293c-0.391-0.391-1.024-0.391-1.414 0s-0.391 1.024 0 1.414z"></path>
</symbol>
<symbol id="icon-youtube" viewBox="0 0 32 32">
<path fill="#f00" style="fill: var(--color1, #f00)" d="M31.327 8.273c-0.386-1.353-1.431-2.398-2.756-2.777l-0.028-0.007c-2.493-0.668-12.528-0.668-12.528-0.668s-10.009-0.013-12.528 0.668c-1.353 0.386-2.398 1.431-2.777 2.756l-0.007 0.028c-0.443 2.281-0.696 4.903-0.696 7.585 0 0.054 0 0.109 0 0.163l-0-0.008c-0 0.037-0 0.082-0 0.126 0 2.682 0.253 5.304 0.737 7.845l-0.041-0.26c0.386 1.353 1.431 2.398 2.756 2.777l0.028 0.007c2.491 0.669 12.528 0.669 12.528 0.669s10.008 0 12.528-0.669c1.353-0.386 2.398-1.431 2.777-2.756l0.007-0.028c0.425-2.233 0.668-4.803 0.668-7.429 0-0.099-0-0.198-0.001-0.297l0 0.015c0.001-0.092 0.001-0.201 0.001-0.31 0-2.626-0.243-5.196-0.708-7.687l0.040 0.258zM12.812 20.801v-9.591l8.352 4.803z"></path>
</symbol>
<symbol id="icon-twitter" viewBox="0 0 32 32">
<path fill="#1da1f2" style="fill: var(--color2, #1da1f2)" d="M31.939 6.092c-1.18 0.519-2.44 0.872-3.767 1.033 1.352-0.815 2.392-2.099 2.884-3.631-1.268 0.74-2.673 1.279-4.169 1.579-1.195-1.279-2.897-2.079-4.788-2.079-3.623 0-6.56 2.937-6.56 6.556 0 0.52 0.060 1.020 0.169 1.499-5.453-0.257-10.287-2.876-13.521-6.835-0.569 0.963-0.888 2.081-0.888 3.3 0 2.28 1.16 4.284 2.917 5.461-1.076-0.035-2.088-0.331-2.971-0.821v0.081c0 3.18 2.257 5.832 5.261 6.436-0.551 0.148-1.132 0.228-1.728 0.228-0.419 0-0.82-0.040-1.221-0.115 0.841 2.604 3.26 4.503 6.139 4.556-2.24 1.759-5.079 2.807-8.136 2.807-0.52 0-1.039-0.031-1.56-0.089 2.919 1.859 6.357 2.945 10.076 2.945 12.072 0 18.665-9.995 18.665-18.648 0-0.279 0-0.56-0.020-0.84 1.281-0.919 2.4-2.080 3.28-3.397z"></path>
</symbol>
<symbol id="icon-linkedin" viewBox="0 0 32 32">
<path fill="#0077b5" style="fill: var(--color3, #0077b5)" d="M27.263 27.269h-4.739v-7.425c0-1.771-0.036-4.049-2.469-4.049-2.471 0-2.848 1.927-2.848 3.919v7.556h-4.739v-15.269h4.552v2.081h0.061c0.636-1.2 2.183-2.467 4.493-2.467 4.801 0 5.689 3.16 5.689 7.273zM7.116 9.911c-1.525 0-2.751-1.235-2.751-2.753 0-1.517 1.227-2.751 2.751-2.751 1.52 0 2.752 1.233 2.752 2.751 0 1.519-1.233 2.753-2.752 2.753zM9.492 27.269h-4.752v-15.269h4.752zM29.633 0h-27.272c-1.305 0-2.361 1.032-2.361 2.305v27.389c0 1.275 1.056 2.305 2.361 2.305h27.268c1.304 0 2.371-1.031 2.371-2.305v-27.389c0-1.273-1.067-2.305-2.371-2.305z"></path>
</symbol>
<symbol id="icon-instagram" viewBox="0 0 32 32">
<path fill="#e4405f" style="fill: var(--color4, #e4405f)" d="M16 0c-4.347 0-4.889 0.020-6.596 0.096-1.704 0.080-2.864 0.348-3.884 0.744-1.052 0.408-1.945 0.956-2.835 1.845s-1.439 1.781-1.845 2.835c-0.396 1.020-0.665 2.18-0.744 3.884-0.080 1.707-0.096 2.249-0.096 6.596s0.020 4.889 0.096 6.596c0.080 1.703 0.348 2.864 0.744 3.884 0.408 1.051 0.956 1.945 1.845 2.835 0.889 0.888 1.781 1.439 2.835 1.845 1.021 0.395 2.181 0.665 3.884 0.744 1.707 0.080 2.249 0.096 6.596 0.096s4.889-0.020 6.596-0.096c1.703-0.080 2.864-0.349 3.884-0.744 1.051-0.408 1.945-0.957 2.835-1.845 0.888-0.889 1.439-1.78 1.845-2.835 0.395-1.020 0.665-2.181 0.744-3.884 0.080-1.707 0.096-2.249 0.096-6.596s-0.020-4.889-0.096-6.596c-0.080-1.703-0.349-2.865-0.744-3.884-0.408-1.052-0.957-1.945-1.845-2.835-0.889-0.889-1.78-1.439-2.835-1.845-1.020-0.396-2.181-0.665-3.884-0.744-1.707-0.080-2.249-0.096-6.596-0.096zM16 2.88c4.271 0 4.78 0.021 6.467 0.095 1.56 0.073 2.407 0.332 2.969 0.553 0.749 0.289 1.28 0.636 1.843 1.195 0.559 0.56 0.905 1.092 1.195 1.841 0.219 0.563 0.48 1.409 0.551 2.969 0.076 1.688 0.093 2.195 0.093 6.467s-0.020 4.78-0.099 6.467c-0.081 1.56-0.341 2.407-0.561 2.969-0.299 0.749-0.639 1.28-1.199 1.843-0.559 0.559-1.099 0.905-1.84 1.195-0.56 0.219-1.42 0.48-2.98 0.551-1.699 0.076-2.199 0.093-6.479 0.093-4.281 0-4.781-0.020-6.479-0.099-1.561-0.081-2.421-0.341-2.981-0.561-0.759-0.299-1.28-0.639-1.839-1.199-0.561-0.559-0.92-1.099-1.2-1.84-0.22-0.56-0.479-1.42-0.56-2.98-0.060-1.68-0.081-2.199-0.081-6.459 0-4.261 0.021-4.781 0.081-6.481 0.081-1.56 0.34-2.419 0.56-2.979 0.28-0.76 0.639-1.28 1.2-1.841 0.559-0.559 1.080-0.919 1.839-1.197 0.56-0.221 1.401-0.481 2.961-0.561 1.7-0.060 2.2-0.080 6.479-0.080zM16 7.784c-4.54 0-8.216 3.68-8.216 8.216 0 4.54 3.68 8.216 8.216 8.216 4.54 0 8.216-3.68 8.216-8.216 0-4.54-3.68-8.216-8.216-8.216zM16 21.333c-2.947 0-5.333-2.387-5.333-5.333s2.387-5.333 5.333-5.333 5.333 2.387 5.333 5.333-2.387 5.333-5.333 5.333zM26.461 7.46c0 1.060-0.861 1.92-1.92 1.92-1.060 0-1.92-0.861-1.92-1.92s0.861-1.919 1.92-1.919c1.057-0.001 1.92 0.86 1.92 1.919z"></path>
</symbol>
<symbol id="icon-facebook" viewBox="0 0 32 32">
<path fill="#1877f2" style="fill: var(--color5, #1877f2)" d="M31.997 15.999c0-8.836-7.163-15.999-15.999-15.999s-15.999 7.163-15.999 15.999c0 7.985 5.851 14.604 13.499 15.804v-11.18h-4.062v-4.625h4.062v-3.525c0-4.010 2.389-6.225 6.043-6.225 1.75 0 3.581 0.313 3.581 0.313v3.937h-2.017c-1.987 0-2.607 1.233-2.607 2.498v3.001h4.437l-0.709 4.625h-3.728v11.18c7.649-1.2 13.499-7.819 13.499-15.804z"></path>
</symbol>
<symbol id="icon-phone" viewBox="0 0 32 32">
<path d="M2.126 1.188c1.278-1.281 5.141-1.495 5.17-0.817 0.029 0.677 3.479 8.191 3.509 8.869s-2.274 2.987-2.948 3.663c-0.668 0.669 4.508 6.533 4.606 6.644 0.11 0.099 5.96 5.287 6.628 4.617 0.674-0.676 2.979-2.985 3.653-2.955 0.676 0.029 8.173 3.487 8.849 3.518 0.676 0.029 0.463 3.9-0.815 5.182-1.093 1.095-6.752 5.071-16.592-2.029-1.079-0.622-2.788-2.049-5.38-4.646-0.001-0.001-0.003-0.003-0.005-0.004-0.002-0.003-0.004-0.004-0.006-0.006s-0.004-0.004-0.006-0.006c-0.001-0.002-0.003-0.004-0.004-0.005-2.59-2.598-4.014-4.312-4.635-5.393-7.083-9.864-3.116-15.537-2.024-16.632z"></path>
</symbol>
<symbol id="icon-mail" viewBox="0 0 32 32">
<path d="M15.996 15.457l16.004-7.539v-3.918h-32v3.906zM16.004 19.879l-16.004-7.559v15.68h32v-15.656z"></path>
</symbol>
<symbol id="icon-share" viewBox="0 0 48 48">
<path d="M0 44c0 2.21 1.79 4 4 4h40c2.21 0 4-1.79 4-4l-0-40c0-2.21-1.79-4-4-4h-40c-2.21 0-4 1.79-4 4v40zM9 24c0-3.31 2.69-6 6-6 1.38 0 2.65 0.47 3.66 1.24l8.359-3.79c-0.019-0.15-0.019-0.3-0.019-0.45 0-3.31 2.689-6 6-6s6 2.69 6 6-2.689 6-6 6c-1.54 0-2.95-0.58-4.010-1.54l-8.060 3.66c0.050 0.29 0.070 0.58 0.070 0.88s-0.020 0.59-0.070 0.88l8.060 3.65c1.060-0.95 2.47-1.53 4.010-1.53 3.311 0 6 2.689 6 6s-2.689 6-6 6-6-2.689-6-6c0-0.15 0-0.3 0.020-0.45l-8.359-3.8c-1.011 0.78-2.281 1.25-3.661 1.25-3.31 0-6-2.689-6-6z"></path>
</symbol>
<symbol id="icon-branding_watermark" viewBox="0 0 24 24">
<path d="M21 18.984v-6h-9v6h9zM21 3q0.797 0 1.406 0.609t0.609 1.406v13.969q0 0.797-0.609 1.406t-1.406 0.609h-18q-0.797 0-1.406-0.609t-0.609-1.406v-13.969q0-0.797 0.609-1.406t1.406-0.609h18z"></path>
</symbol>
<symbol id="icon-codepen" viewBox="0 0 24 24">
<path d="M5.256 12l-2.256 1.579v-3.159zM21 13.579l-2.256-1.579 2.256-1.579zM17 13.221l3.212 2.249-7.212 4.687v-4.137zM8.744 12l3.256-2.279 3.256 2.279-3.256 2.279zM3.788 15.469l3.212-2.248 4 2.8v4.137zM12.557 1.169c-0.159-0.107-0.351-0.169-0.557-0.169s-0.398 0.062-0.557 0.169l-9.969 6.48c-0.112 0.070-0.213 0.163-0.293 0.278-0.125 0.178-0.184 0.383-0.181 0.585v6.976c-0.002 0.184 0.046 0.37 0.148 0.536 0.041 0.068 0.091 0.131 0.149 0.188 0.047 0.047 0.1 0.089 0.158 0.127l0.019 0.012 9.969 6.48c0.159 0.107 0.351 0.169 0.557 0.169s0.398-0.062 0.557-0.169l9.969-6.48c0.112-0.069 0.213-0.162 0.293-0.277 0.125-0.178 0.183-0.383 0.181-0.586v-6.976c0.002-0.184-0.046-0.37-0.148-0.536-0.041-0.067-0.091-0.131-0.149-0.188-0.047-0.047-0.1-0.089-0.158-0.127l-0.019-0.012zM13 7.979v-4.136l7.212 4.688-3.212 2.248zM11 3.843v4.137l-4 2.8-3.212-2.249z"></path>
</symbol>
<symbol id="icon-document-code" viewBox="0 0 32 32">
<path d="M19 3v6.002c0 1.111 0.898 1.998 2.006 1.998h4.994v17.003c0 1.107-0.894 1.997-1.997 1.997h-15.005c-1.107 0-1.997-0.899-1.997-2.007v-22.985c0-1.109 0.899-2.007 2.009-2.007h9.991zM20 3v5.997c0 0.554 0.451 1.003 0.991 1.003h5.009l-6-7zM13 26l0.7-0.7-3.3-3.3 3.3-3.3-0.7-0.7-4 4 4 4zM20 26l4-4-4-4-0.7 0.7 3.3 3.3-3.3 3.3 0.7 0.7zM17 18l-2 8h1l2-8h-1z"></path>
</symbol>
<symbol id="icon-color-palette" viewBox="0 0 20 20">
<path d="M9 20v-1.7l0.010-0.24 6.060-6.060h2.94c1.1 0 1.99 0.89 1.99 2v4c0 1.105-0.895 2-2 2v0h-9zM9 16.66v-11.32l2.080-2.070c0.36-0.362 0.859-0.586 1.41-0.586s1.050 0.224 1.41 0.586l2.83 2.83c0.359 0.362 0.582 0.86 0.582 1.41s-0.222 1.048-0.582 1.41l0-0-7.73 7.74zM0 1.99c0-1.090 0.89-1.99 2-1.99h4c1.105 0 2 0.895 2 2v0 16c0 1.105-0.895 2-2 2v0h-4c-1.105 0-2-0.895-2-2v0-16zM4 17c0.552 0 1-0.448 1-1s-0.448-1-1-1v0c-0.552 0-1 0.448-1 1s0.448 1 1 1v0z"></path>
</symbol>
<symbol id="icon-stats-bars" viewBox="0 0 32 32">
<path d="M0 26h32v4h-32zM4 18h4v6h-4zM10 10h4v14h-4zM16 16h4v8h-4zM22 4h4v20h-4z"></path>
</symbol>
<symbol id="icon-power" viewBox="0 0 32 32">
<path d="M12 0l-12 16h12l-8 16 28-20h-16l12-12z"></path>
</symbol>
<symbol id="icon-chevron-up" viewBox="0 0 24 24">
<path d="M18.707 14.293l-6-6c-0.391-0.391-1.024-0.391-1.414 0l-6 6c-0.391 0.391-0.391 1.024 0 1.414s1.024 0.391 1.414 0l5.293-5.293 5.293 5.293c0.391 0.391 1.024 0.391 1.414 0s0.391-1.024 0-1.414z"></path>
</symbol>
</defs>
</svg>
